<svg width="145" height="83" viewBox="0 0 145 83" fill="none" xmlns="http://www.w3.org/2000/svg">
<path d="M37.8935 14.9589C40.3628 14.9589 42.6183 15.4813 44.6602 16.526C46.7496 17.5232 48.3878 18.9477 49.575 20.7997C50.8096 22.6516 51.4269 24.7172 51.4269 26.9965C51.4269 33.0272 48.6965 36.8261 43.2356 38.3931V38.678C49.4563 40.1026 52.5666 44.1863 52.5666 50.9293C52.5666 53.4935 51.9255 55.7728 50.6434 57.7672C49.4088 59.7141 47.6993 61.2337 45.5149 62.3258C43.3306 63.418 40.9326 63.9641 38.3209 63.9641H5.2709V14.9589H37.8935ZM21.0124 34.0482H31.8391C32.8838 34.0482 33.7385 33.692 34.4033 32.9797C35.1156 32.22 35.4717 31.294 35.4717 30.2018V29.4895C35.4717 28.4449 35.1156 27.5664 34.4033 26.8541C33.691 26.0943 32.8363 25.7144 31.8391 25.7144H21.0124V34.0482ZM21.0124 52.5675H32.9787C34.0234 52.5675 34.8782 52.2114 35.543 51.4991C36.2553 50.7393 36.6114 49.8134 36.6114 48.7212V48.0089C36.6114 46.9168 36.2553 46.0145 35.543 45.3022C34.8782 44.5425 34.0234 44.1626 32.9787 44.1626H21.0124V52.5675ZM76.3368 63.9641L74.2712 57.0549H57.1051L55.0395 63.9641H38.9419L56.8202 14.9589H75.1259L93.0043 63.9641H76.3368ZM60.3816 46.0858H70.9947L65.8662 28.6348H65.5813L60.3816 46.0858ZM125.009 63.9641V46.2994C125.009 44.1151 125.08 41.8833 125.222 39.604C125.412 37.2772 125.602 35.3303 125.792 33.7632C125.982 32.1962 126.101 31.199 126.148 30.7716H125.863L116.817 63.9641H104.495L95.3776 30.8429H95.0927C95.1402 31.2702 95.2589 32.2674 95.4488 33.8345C95.6863 35.354 95.9 37.2772 96.0899 39.604C96.2798 41.8833 96.3748 44.1151 96.3748 46.2994V63.9641H81.9154V14.9589H104.139L111.546 43.2366H111.831L119.168 14.9589H140.608V63.9641H125.009Z" fill="#EA3042"/>
<path d="M12.7691 74.9184C12.7691 76.0668 12.5093 76.985 11.9898 77.6731C11.4749 78.3567 10.7777 78.6984 9.89816 78.6984C9.21917 78.6984 8.66093 78.4501 8.22346 77.9534V81.4053H5.91988V71.1657H8.07308L8.14143 71.8492C8.58346 71.3024 9.16448 71.029 9.88449 71.029C10.7959 71.029 11.5045 71.3662 12.0103 72.0406C12.5162 72.7105 12.7691 73.6333 12.7691 74.809V74.9184ZM10.4655 74.7749C10.4655 73.4624 10.0827 72.8062 9.31714 72.8062C8.7703 72.8062 8.40574 73.0022 8.22346 73.3941V76.306C8.42397 76.7161 8.79309 76.9212 9.33082 76.9212C10.0645 76.9212 10.4427 76.2878 10.4655 75.0209V74.7749ZM21.643 71.9586C22.1351 71.3389 22.764 71.029 23.5296 71.029C24.3453 71.029 24.9605 71.2705 25.3752 71.7535C25.7899 72.2366 26.0018 72.9498 26.0109 73.8931V78.5617H23.7005V73.9478C23.7005 73.5558 23.6207 73.2688 23.4612 73.0865C23.3017 72.8996 23.0306 72.8062 22.6478 72.8062C22.1739 72.8062 21.8389 72.9566 21.643 73.2574V78.5617H19.3394V68.0624H21.643V71.9586ZM32.6017 74.7954C32.6017 74.0571 32.7453 73.4009 33.0324 72.8267C33.3194 72.248 33.7319 71.8037 34.2696 71.4938C34.8073 71.1839 35.4385 71.029 36.163 71.029C37.2704 71.029 38.1431 71.373 38.781 72.0611C39.419 72.7447 39.738 73.6766 39.738 74.8569V74.9389C39.738 76.0918 39.4167 77.0078 38.7742 77.6868C38.1362 78.3612 37.2704 78.6984 36.1767 78.6984C35.124 78.6984 34.2787 78.384 33.6407 77.7551C33.0027 77.1217 32.6587 76.265 32.6085 75.185L32.6017 74.7954ZM34.9053 74.9389C34.9053 75.6225 35.0124 76.1237 35.2266 76.4427C35.4407 76.7617 35.7575 76.9212 36.1767 76.9212C36.997 76.9212 37.4162 76.2901 37.4344 75.0278V74.7954C37.4344 73.4693 37.0106 72.8062 36.163 72.8062C35.3929 72.8062 34.9759 73.3781 34.9121 74.5219L34.9053 74.9389ZM49.0357 69.3269V71.1657H50.2524V72.7652H49.0357V76.1488C49.0357 76.4268 49.0858 76.6204 49.1861 76.7298C49.2863 76.8392 49.4846 76.8939 49.7808 76.8939C50.0086 76.8939 50.2 76.8802 50.355 76.8529V78.5002C49.9403 78.6324 49.5074 78.6984 49.0562 78.6984C48.2633 78.6984 47.6777 78.5116 47.2995 78.1379C46.9212 77.7643 46.7321 77.1969 46.7321 76.4359V72.7652H45.7888V71.1657H46.7321V69.3269H49.0357ZM56.2691 74.7954C56.2691 74.0571 56.4126 73.4009 56.6997 72.8267C56.9868 72.248 57.3992 71.8037 57.9369 71.4938C58.4747 71.1839 59.1058 71.029 59.8304 71.029C60.9377 71.029 61.8104 71.373 62.4484 72.0611C63.0864 72.7447 63.4054 73.6766 63.4054 74.8569V74.9389C63.4054 76.0918 63.0841 77.0078 62.4416 77.6868C61.8036 78.3612 60.9377 78.6984 59.8441 78.6984C58.7914 78.6984 57.9461 78.384 57.3081 77.7551C56.6701 77.1217 56.326 76.265 56.2759 75.185L56.2691 74.7954ZM58.5726 74.9389C58.5726 75.6225 58.6797 76.1237 58.8939 76.4427C59.1081 76.7617 59.4248 76.9212 59.8441 76.9212C60.6643 76.9212 61.0836 76.2901 61.1018 75.0278V74.7954C61.1018 73.4693 60.678 72.8062 59.8304 72.8062C59.0602 72.8062 58.6433 73.3781 58.5795 74.5219L58.5726 74.9389ZM69.7501 74.809C69.7501 74.0617 69.8732 73.4009 70.1192 72.8267C70.3653 72.2525 70.7185 71.8105 71.1787 71.5006C71.639 71.1862 72.1745 71.029 72.7851 71.029C73.5552 71.029 74.1568 71.2887 74.5897 71.8082L74.6717 71.1657H76.7634V78.2815C76.7634 78.9331 76.6107 79.4982 76.3054 79.9767C76.0046 80.4597 75.5672 80.8289 74.993 81.084C74.4188 81.3438 73.7535 81.4737 72.997 81.4737C72.4547 81.4737 71.9284 81.3711 71.418 81.1661C70.9122 80.961 70.5248 80.6944 70.2559 80.3663L71.2198 79.0129C71.6481 79.5187 72.2132 79.7716 72.915 79.7716C73.9357 79.7716 74.4461 79.2476 74.4461 78.1995V77.967C74.0041 78.4546 73.4459 78.6984 72.7714 78.6984C71.8691 78.6984 71.14 78.3544 70.5841 77.6663C70.0281 76.9736 69.7501 76.0485 69.7501 74.8911V74.809ZM72.0605 74.9526C72.0605 75.5587 72.1745 76.0394 72.4023 76.3949C72.6302 76.7458 72.9491 76.9212 73.3593 76.9212C73.856 76.9212 74.2183 76.7549 74.4461 76.4222V73.312C74.2228 72.9748 73.8651 72.8062 73.3729 72.8062C72.9628 72.8062 72.6415 72.9908 72.4091 73.3599C72.1767 73.7245 72.0605 74.2553 72.0605 74.9526ZM88.1459 73.2505L87.3872 73.1958C86.6626 73.1958 86.1978 73.4237 85.9927 73.8794V78.5617H83.6891V71.1657H85.8492L85.9244 72.1158C86.3117 71.3913 86.8517 71.029 87.5444 71.029C87.7905 71.029 88.0046 71.0563 88.1869 71.111L88.1459 73.2505ZM98.5373 78.5617C98.4553 78.4114 98.3824 78.1903 98.3186 77.8987C97.8948 78.4319 97.3023 78.6984 96.5413 78.6984C95.8441 78.6984 95.2517 78.4888 94.7641 78.0696C94.2765 77.6458 94.0327 77.1149 94.0327 76.4769C94.0327 75.6749 94.3289 75.0688 94.9213 74.6586C95.5137 74.2485 96.375 74.0434 97.5051 74.0434H98.216V73.6538C98.216 72.9748 97.9221 72.6353 97.3342 72.6353C96.7874 72.6353 96.514 72.9042 96.514 73.4419H94.2104C94.2104 72.7265 94.5134 72.1454 95.1195 71.6989C95.7302 71.2523 96.5071 71.029 97.4504 71.029C98.3937 71.029 99.1388 71.2591 99.6857 71.7194C100.233 72.1796 100.513 72.8108 100.526 73.6128V76.887C100.536 77.566 100.64 78.0855 100.841 78.4455V78.5617H98.5373ZM97.095 77.0579C97.3821 77.0579 97.6191 76.9964 97.8059 76.8734C97.9973 76.7503 98.134 76.6113 98.216 76.4564V75.2738H97.5461C96.7441 75.2738 96.3431 75.6338 96.3431 76.3539C96.3431 76.5635 96.4137 76.7344 96.555 76.8665C96.6963 76.9941 96.8763 77.0579 97.095 77.0579ZM114.274 74.9184C114.274 76.0668 114.014 76.985 113.495 77.6731C112.98 78.3567 112.283 78.6984 111.403 78.6984C110.724 78.6984 110.166 78.4501 109.728 77.9534V81.4053H107.425V71.1657H109.578L109.646 71.8492C110.088 71.3024 110.669 71.029 111.389 71.029C112.301 71.029 113.009 71.3662 113.515 72.0406C114.021 72.7105 114.274 73.6333 114.274 74.809V74.9184ZM111.97 74.7749C111.97 73.4624 111.588 72.8062 110.822 72.8062C110.275 72.8062 109.911 73.0022 109.728 73.3941V76.306C109.929 76.7161 110.298 76.9212 110.836 76.9212C111.569 76.9212 111.948 76.2878 111.97 75.0209V74.7749ZM123.148 71.9586C123.64 71.3389 124.269 71.029 125.035 71.029C125.85 71.029 126.465 71.2705 126.88 71.7535C127.295 72.2366 127.507 72.9498 127.516 73.8931V78.5617H125.205V73.9478C125.205 73.5558 125.126 73.2688 124.966 73.0865C124.807 72.8996 124.536 72.8062 124.153 72.8062C123.679 72.8062 123.344 72.9566 123.148 73.2574V78.5617H120.844V68.0624H123.148V71.9586ZM137.354 75.3354L138.584 71.1657H141.052L138.037 79.799L137.907 80.1134C137.479 81.0704 136.722 81.5489 135.638 81.5489C135.337 81.5489 135.02 81.5033 134.688 81.4122V79.7648H134.988C135.312 79.7648 135.558 79.7169 135.727 79.6212C135.9 79.5301 136.027 79.3638 136.109 79.1223L136.294 78.6301L133.724 71.1657H136.185L137.354 75.3354Z" fill="#EA3042"/>
</svg>
